<svg width="415" height="455" viewBox="0 0 415 455" fill="none" xmlns="http://www.w3.org/2000/svg">
<path d="M212.393 64.5021C193.224 55.2488 172.397 49.9273 151.138 48.8517C129.88 47.776 108.622 50.9679 88.6173 58.2391C73.1493 63.3587 58.6848 71.1185 45.8652 81.1747C33.1184 90.649 21.7973 101.904 12.2478 114.594C10.4036 125.66 9.89606 137.678 10.614 153.534C10.992 163.297 12.5803 172.976 15.3422 182.349C64.8524 115.25 153.042 85.1107 225.327 110.67C252.977 120.877 277.635 137.837 297.055 160.007C296.682 158.822 296.4 157.609 296.213 156.381C281.695 115.411 251.196 81.9173 212.393 64.5021Z" fill="url(#paint0_linear_2073_766)"/>
<path d="M347.108 135.064C344.423 114.687 337.685 95.0547 327.292 77.3234C316.899 59.5922 303.061 44.1212 286.594 31.8227C274.27 22.0474 260.346 14.4802 245.439 9.45643C231.041 4.17768 215.96 0.99307 200.657 0C190.755 4.38165 180.766 10.3352 168.339 19.3213C160.66 24.7995 153.689 31.206 147.582 38.3951C228.036 42.8139 299.046 98.0673 316.696 169.981C323.105 197.71 322.471 226.603 314.852 254.024C315.612 253.098 316.44 252.229 317.328 251.425C342.714 217.993 353.569 175.588 347.108 135.064Z" fill="url(#paint1_linear_2073_766)"/>
<path d="M354.09 288.003C369.282 276.677 382.049 262.421 391.637 246.076C401.225 229.732 407.439 211.631 409.913 192.844C412.237 178.527 412.061 163.916 409.393 149.659C407.156 135.703 402.929 122.139 396.842 109.383C388.858 103.367 379.575 98.0324 366.752 92.0541C358.87 88.3322 350.554 85.6087 341.997 83.9468C374.637 150.612 362.16 232.651 312.291 279.215C292.873 296.857 269.345 309.355 243.855 315.568C244.943 315.763 246.015 316.041 247.061 316.397C285.407 321.806 324.409 311.446 354.09 288.003Z" fill="url(#paint2_linear_2073_766)"/>
<path d="M210.525 391.054C229.459 400.786 250.153 406.625 271.382 408.226C292.611 409.827 313.946 407.157 334.127 400.374C349.722 395.64 364.379 388.24 377.448 378.503C390.425 369.351 402.021 358.384 411.882 345.938C413.999 334.922 414.803 322.915 414.482 307.035C414.338 297.268 412.987 287.556 410.459 278.121C359.327 343.982 270.395 371.93 198.803 344.588C171.415 333.699 147.187 316.13 128.325 293.482C128.659 294.68 128.911 295.9 129.08 297.133C142.498 338.449 172.204 372.686 210.525 391.054Z" fill="url(#paint3_linear_2073_766)"/>
<path d="M69.2473 304.76C70.5263 326.004 76.047 346.775 85.4836 365.851C94.9202 384.926 108.082 401.918 124.191 415.824C136.192 426.831 150.013 435.672 165.037 441.953C179.522 448.46 194.865 452.854 210.599 454.999C221.169 451.211 231.901 445.778 245.405 437.411C253.733 432.313 261.399 426.206 268.229 419.228C185.596 408.769 116.171 346.497 103.211 270.92C98.6249 241.819 101.395 212.033 111.269 184.277C110.409 185.168 109.487 185.995 108.509 186.753C79.8425 219.417 65.5341 262.429 69.2473 304.76Z" fill="url(#paint4_linear_2073_766)"/>
<path d="M68.7263 144.642C51.2686 156.812 36.425 172.356 25.071 190.355C13.7169 208.355 6.08246 228.445 2.61782 249.443C-0.511228 265.434 -0.837901 281.847 1.65238 297.95C3.65347 313.706 7.90949 329.092 14.2898 343.636C23.0284 350.666 33.2646 356.991 47.4369 364.145C56.1337 368.592 65.3463 371.946 74.8655 374.134C40.6416 298.111 57.537 206.455 115.303 155.98C137.744 136.869 164.61 123.678 193.455 117.609C192.241 117.356 191.049 117.008 189.89 116.57C147.064 109.18 102.901 119.392 68.7263 144.642Z" fill="url(#paint5_linear_2073_766)"/>
<defs>
<linearGradient id="paint0_linear_2073_766" x1="10.3169" y1="115.498" x2="297.067" y2="115.498" gradientUnits="userSpaceOnUse">
<stop stop-color="#009400"/>
<stop offset="1" stop-color="#39C210"/>
</linearGradient>
<linearGradient id="paint1_linear_2073_766" x1="147.582" y1="127.006" x2="348.928" y2="127.006" gradientUnits="userSpaceOnUse">
<stop stop-color="#009400"/>
<stop offset="1" stop-color="#39C210"/>
</linearGradient>
<linearGradient id="paint2_linear_2073_766" x1="243.88" y1="200.902" x2="411.534" y2="200.902" gradientUnits="userSpaceOnUse">
<stop stop-color="#009400"/>
<stop offset="1" stop-color="#39C210"/>
</linearGradient>
<linearGradient id="paint3_linear_2073_766" x1="128.239" y1="343.4" x2="414.494" y2="343.4" gradientUnits="userSpaceOnUse">
<stop stop-color="#009400"/>
<stop offset="1" stop-color="#39C210"/>
</linearGradient>
<linearGradient id="paint4_linear_2073_766" x1="68.6656" y1="319.626" x2="268.241" y2="319.626" gradientUnits="userSpaceOnUse">
<stop stop-color="#009400"/>
<stop offset="1" stop-color="#39C210"/>
</linearGradient>
<linearGradient id="paint5_linear_2073_766" x1="-0.0062145" y1="244.182" x2="193.455" y2="244.182" gradientUnits="userSpaceOnUse">
<stop stop-color="#009400"/>
<stop offset="1" stop-color="#39C210"/>
</linearGradient>
</defs>
</svg>
